# xmcd
#
# Track frame offsets:
#	150
#	13995
#	25110
#	40072
#	59032
#	70417
#	84195
#	95357
#	109587
#	127277
#	141212
#	154160
#
# Disc length: 2236 seconds
#
# Revision: 7
# Processed by: cddbd v1.5.2PL0 Copyright (c) Steve Scherf et al.
# Submitted via: audiograbber 1.83.01
#
DISCID=a408ba0c
DTITLE=Patty Loveless - 20th Century Masters - The Millennium Collection - The 
DTITLE=Best Of
DYEAR=2000
DGENRE=Oldies
TTITLE0=If My Heart Had Windows
TTITLE1=A Little Bit In Love
TTITLE2=Blue Side Of Town
TTITLE3=Don't Toss Us Away
TTITLE4=Timber, I'm Falling In Love
TTITLE5=The Lonely Side Of Love
TTITLE6=Chains
TTITLE7=On Down The Line
TTITLE8=The Night's Too Long
TTITLE9=I'm That Kind Of Girl
TTITLE10=Blue Memories
TTITLE11=Hurt Me Bad (In A Real Good Way)
EXTD=
EXTT0=
EXTT1=
EXTT2=
EXTT3=
EXTT4=
EXTT5=
EXTT6=
EXTT7=
EXTT8=
EXTT9=
EXTT10=
EXTT11=
PLAYORDER=
